HIERARCHY
ROOT hip
{
  OFFSET 0 0 0
  CHANNELS 6 Xposition Yposition Zposition Zrotation Yrotation Xrotation
  JOINT abdomen
  {
    OFFSET 0 20.6881 -0.73152
    CHANNELS 3 Zrotation Xrotation Yrotation
    JOINT chest
    {
      OFFSET 0 11.7043 -0.48768
      CHANNELS 3 Zrotation Xrotation Yrotation
      JOINT neck
      {
        OFFSET 0 22.1894 -2.19456
        CHANNELS 3 Zrotation Xrotation Yrotation
        JOINT head
        {
          OFFSET -0.24384 7.07133 1.2192
          CHANNELS 3 Zrotation Xrotation Yrotation
          JOINT leftEye
          {
            OFFSET 4.14528 8.04674 8.04672
            CHANNELS 3 Zrotation Xrotation Yrotation
            End Site
            {
              OFFSET 1 0 0
            }
          }
          JOINT rightEye
          {
            OFFSET -3.6576 8.04674 8.04672
            CHANNELS 3 Zrotation Xrotation Yrotation
            End Site
            {
              OFFSET 1 0 0
            }
          }
        }
      }
      JOINT rCollar
      {
        OFFSET -2.68224 19.2634 -4.8768
        CHANNELS 3 Zrotation Xrotation Yrotation
        JOINT rShldr
        {
          OFFSET -8.77824 -1.95073 1.46304
          CHANNELS 3 Zrotation Xrotation Yrotation
          JOINT rForeArm
          {
            OFFSET -28.1742 -1.7115 0.48768
            CHANNELS 3 Zrotation Xrotation Yrotation
            JOINT rHand
            {
              OFFSET -22.5879 0.773209 7.07136
              CHANNELS 3 Zrotation Xrotation Yrotation
              JOINT rThumb1
              {
                OFFSET -1.2192 -0.487915 3.41376
                CHANNELS 3 Zrotation Xrotation Yrotation
                JOINT rThumb2
                {
                  OFFSET -3.37035 -0.52449 3.41376
                  CHANNELS 3 Zrotation Xrotation Yrotation
                  End Site
                  {
                    OFFSET -1.78271 -1.18214 1.43049
                  }
                }
              }
              JOINT rIndex1
              {
                OFFSET -7.75947 0.938293 5.60832
                CHANNELS 3 Zrotation Xrotation Yrotation
                JOINT rIndex2
                {
                  OFFSET -2.54057 -0.884171 1.56538
                  CHANNELS 3 Zrotation Xrotation Yrotation
                  End Site
                  {
                    OFFSET -1.62519 -0.234802 1.16502
                  }
                }
              }
              JOINT rMid1
              {
                OFFSET -8.24714 1.18213 3.41376
                CHANNELS 3 Zrotation Xrotation Yrotation
                JOINT rMid2
                {
                  OFFSET -3.10165 -0.590103 1.0647
                  CHANNELS 3 Zrotation Xrotation Yrotation
                  End Site
                  {
                    OFFSET -2.48547 -0.328903 0.83742
                  }
                }
              }
              JOINT rRing1
              {
                OFFSET -8.82822 0.546677 1.51678
                CHANNELS 3 Zrotation Xrotation Yrotation
                JOINT rRing2
                {
                  OFFSET -2.60934 -0.819778 -0.0198488
                  CHANNELS 3 Zrotation Xrotation Yrotation
                  End Site
                  {
                    OFFSET -2.33842 -0.294052 0.168128
                  }
                }
              }
              JOINT rPinky1
              {
                OFFSET -8.27202 -0.0477905 -0.4584
                CHANNELS 3 Zrotation Xrotation Yrotation
                JOINT rPinky2
                {
                  OFFSET -1.82734 -0.647385 -0.700984
                  CHANNELS 3 Zrotation Xrotation Yrotation
                  End Site
                  {
                    OFFSET -1.69225 -0.51767 -0.607171
                  }
                }
              }
            }
          }
        }
      }
      JOINT lCollar
      {
        OFFSET 2.68224 19.2634 -4.8768
        CHANNELS 3 Zrotation Xrotation Yrotation
        JOINT lShldr
        {
          OFFSET 8.77824 -1.95073 1.46304
          CHANNELS 3 Zrotation Xrotation Yrotation
          JOINT lForeArm
          {
            OFFSET 28.1742 -1.7115 0.48768
            CHANNELS 3 Zrotation Xrotation Yrotation
            JOINT lHand
            {
              OFFSET 22.5879 0.773209 7.07136
              CHANNELS 3 Zrotation Xrotation Yrotation
              JOINT lThumb1
              {
                OFFSET 1.2192 -0.487915 3.41376
                CHANNELS 3 Zrotation Xrotation Yrotation
                JOINT lThumb2
                {
                  OFFSET 3.37035 -0.52449 3.41376
                  CHANNELS 3 Zrotation Xrotation Yrotation
                  End Site
                  {
                    OFFSET 1.78271 -1.18214 1.43049
                  }
                }
              }
              JOINT lIndex1
              {
                OFFSET 7.75947 0.938293 5.60832
                CHANNELS 3 Zrotation Xrotation Yrotation
                JOINT lIndex2
                {
                  OFFSET 2.54057 -0.884171 1.56538
                  CHANNELS 3 Zrotation Xrotation Yrotation
                  End Site
                  {
                    OFFSET 1.62519 -0.234802 1.16502
                  }
                }
              }
              JOINT lMid1
              {
                OFFSET 8.24714 1.18213 3.41376
                CHANNELS 3 Zrotation Xrotation Yrotation
                JOINT lMid2
                {
                  OFFSET 3.10165 -0.590103 1.0647
                  CHANNELS 3 Zrotation Xrotation Yrotation
                  End Site
                  {
                    OFFSET 2.48547 -0.328903 0.83742
                  }
                }
              }
              JOINT lRing1
              {
                OFFSET 8.82822 0.546677 1.51678
                CHANNELS 3 Zrotation Xrotation Yrotation
                JOINT lRing2
                {
                  OFFSET 2.60934 -0.819778 -0.0198488
                  CHANNELS 3 Zrotation Xrotation Yrotation
                  End Site
                  {
                    OFFSET 2.33842 -0.294052 0.168128
                  }
                }
              }
              JOINT lPinky1
              {
                OFFSET 8.27202 -0.0477905 -0.4584
                CHANNELS 3 Zrotation Xrotation Yrotation
                JOINT lPinky2
                {
                  OFFSET 1.82734 -0.647385 -0.700984
                  CHANNELS 3 Zrotation Xrotation Yrotation
                  End Site
                  {
                    OFFSET 1.69225 -0.51767 -0.607171
                  }
                }
              }
            }
          }
        }
      }
    }
  }
  JOINT rButtock
  {
    OFFSET -8.77824 4.35084 1.2192
    CHANNELS 3 Zrotation Xrotation Yrotation
    JOINT rThigh
    {
      OFFSET 0 -1.70687 -2.19456
      CHANNELS 3 Zrotation Xrotation Yrotation
      JOINT rShin
      {
        OFFSET 0 -36.8199 0.73152
        CHANNELS 3 Zrotation Xrotation Yrotation
        JOINT rFoot
        {
          OFFSET 0.73152 -45.1104 -5.12064
          CHANNELS 3 Zrotation Xrotation Yrotation
          End Site
          {
            OFFSET -1.1221 -3.69964 12.103
          }
        }
      }
    }
  }
  JOINT lButtock
  {
    OFFSET 8.77824 4.35084 1.2192
    CHANNELS 3 Zrotation Xrotation Yrotation
    JOINT lThigh
    {
      OFFSET 0 -1.70687 -2.19456
      CHANNELS 3 Zrotation Xrotation Yrotation
      JOINT lShin
      {
        OFFSET 0 -36.8199 0.73152
        CHANNELS 3 Zrotation Xrotation Yrotation
        JOINT lFoot
        {
          OFFSET -0.73152 -45.1104 -5.12064
          CHANNELS 3 Zrotation Xrotation Yrotation
          End Site
          {
            OFFSET 1.1221 -3.69964 12.103
          }
        }
      }
    }
  }
}
MOTION
Frames:	4
Frame Time:	0.03333
-0.6103400059146225 50.96619725227356 -3.36399998232082 -1.082900025922488 -5.928800140622883 364.83100281786267 -4.66993992752888 20.1560999765719 0.644088012670966 3.995670055967568 -13.12429984395965 0.43753599517634595 2.3751199501398905 12.135600079522685 8.855260004198785 -2.0660999939737112 -28.02340043808502 17.02639972339263 -0.0 0.0 0.0 -0.0 0.0 0.0 1.8228900714419302e-14 1.8486300712651507e-14 -1.7349900065734602e-13 62.72789726188516 35.23880032445544 3.20627990726663 -28.415400362477683 -36.72860118621862 78.22330154508298 -0.4487029809433466 -19.773199571700985 -2.8803599286597237 1.5204299745108084e-09 -3.526899911279614e-08 2.355559945518072e-09 2.57384002181424e-09 -6.038389929395783e-08 4.094889806918598e-09 1.5204299745108084e-09 -3.5268900515601016e-08 2.355559945518072e-09 7.730910121524428 5.474879855648998 0.41731399283890674 1.5204299745108084e-09 -3.5268900515601016e-08 2.3555500062846923e-09 2.90554006136521 0.9651829962377875 0.10290200252939893 1.5204400131365219e-09 -3.5268900515601016e-08 2.355559945518072e-09 10.278599710243157 0.7318009818271524 0.025912300303053633 1.520420035277429e-09 -3.526899911279614e-08 2.355559945518072e-09 2.221669932038622 -0.7334870246959406 -0.20891999872313852 1.8106399845008856e-14 1.848699986831984e-14 -1.7372799612952138e-13 -16.773899582608305 -0.3387469938269112 -93.0347989866874 21.887499997204063 -15.653799785144988 -43.46169921717964 0.5102530172055049 -19.617899852995112 2.875310070985557 1.6442799786683275e-09 -5.187469975401594e-09 -8.197170030208913e-10 2.8535799440670036e-09 -8.970340211820589e-09 -1.3969899637301968e-09 1.6442799786683275e-09 -5.187469975401594e-09 -8.197060201680069e-10 -7.730910121524428 5.474879855648998 -0.41731399283890674 1.6442799786683275e-09 -5.187469975401594e-09 -8.197119837080346e-10 -2.90554006136521 0.9651829962377875 -0.10290200252939893 1.6442799786683275e-09 -5.187469975401594e-09 -8.197170030208913e-10 -10.278599710243157 0.7318009818271524 -0.025912300303053633 1.6442900172940408e-09 -5.187469975401594e-09 -8.197250041037618e-10 -2.221669932038622 -0.7334870246959406 0.20891999872313852 -2.0321699793705798e-16 0.0 -3.882510030490358e-19 -68.00180050875383 -65.2329032909332 -53.45009955751459 -173.11300232542743 80.28269920249019 174.29299946681715 -11.115400336407268 -27.169399688043523 -17.064100660063808 2.0321699793705798e-16 0.0 3.882510030490358e-19 74.59630034107695 -47.23709994128253 66.99949756881114 174.71499587449722 76.96890315306428 -176.1320005800864 8.067519773069227 -22.065499849616472 13.639099739439974
-0.9001400007036864 51.202601194381714 -3.590999987864052 -1.2466000235338297 -5.1800999901286495 364.9809937720362 -4.3226299308756095 20.467899819730274 1.8232799387905878 3.5727799607232864 -13.386800235462518 0.7406020007378312 2.418540103023896 12.33489987686178 9.331570076158794 -2.7359199972907597 -28.234400349472345 17.81510044987422 -0.0 0.0 0.0 -0.0 0.0 0.0 3.120110019874531e-14 -6.202059789718014e-14 -1.1435100136052547e-13 56.81160106319846 35.37689991928393 11.958199576209944 -28.433300580744994 -35.76480002262729 76.61600093902805 -0.16418000516352038 -11.471900352588792 -1.6343899900768275 3.47111003021443e-10 -6.41577991734671e-08 4.901550024194038e-11 6.001560080229307e-10 -1.1065999581022462e-07 8.713840205055944e-11 3.471129908681189e-10 -6.41577991734671e-08 4.9012301051196325e-11 7.730910121524428 5.474879855648998 0.41731399283890674 3.471079964033457e-10 -6.41577991734671e-08 4.9012301051196325e-11 2.90554006136521 0.9651829962377875 0.10290200252939893 3.47111996944781e-10 -6.41577991734671e-08 4.9021898623428475e-11 10.278599710243157 0.7318009818271524 0.025912300303053633 3.470999953204751e-10 -6.41577991734671e-08 4.903780139683579e-11 2.221669932038622 -0.7334870246959406 -0.20891999872313852 3.102059974099639e-14 -6.202199924173011e-14 -1.1464899636911398e-13 -11.013200215856367 -0.38433100933691516 -95.0196997708173 24.574499831781665 -20.211200820153685 -51.48149901983893 0.7862079742387997 -24.33819919216132 3.6447101769765715 -2.1713800868468813e-10 -1.2112799600802208e-10 -1.0896999774342627e-09 -3.5332699957702826e-10 -2.3829699657629243e-10 -1.883539987566767e-09 -2.1713599598992877e-10 -1.2113599709089264e-10 -1.0896900382008832e-09 -7.730910121524428 5.474879855648998 -0.41731399283890674 -2.1713900260802608e-10 -1.2113300289683704e-10 -1.0896999774342627e-09 -2.90554006136521 0.9651829962377875 -0.10290200252939893 -2.1714499099613728e-10 -1.2113300289683704e-10 -1.0896999774342627e-09 -10.278599710243157 0.7318009818271524 -0.025912300303053633 -2.1713000760181757e-10 -1.211310026261194e-10 -1.089710016059976e-09 -2.221669932038622 -0.7334870246959406 0.20891999872313852 -2.0321699793705798e-16 0.0 -3.882510030490358e-19 -67.02000179669952 -65.096101432047 -52.89910136698049 -172.94100450174815 80.53670027734464 174.09700035839447 -10.711800189482984 -27.148799837506765 -16.46639934353245 2.0321699793705798e-16 0.0 3.882510030490358e-19 74.6802023848414 -48.06339915159775 66.75150023023714 174.50300046303838 77.54920285513774 -175.88600448693924 7.808160414810918 -21.6514998859072 13.390800164995207
-1.188080004612857 51.49400234222412 -3.802999995605205 -1.3365000406065954 -4.509599956102361 365.20699107129354 -4.119469795994988 20.509000483060824 3.0397199813837568 3.125870011158774 -13.57119997512723 1.0435200366542505 2.353529935616892 12.922699980417553 9.89410957884292 -3.190250093614845 -28.689898835031325 18.836099325122525 -0.0 0.0 0.0 -0.0 0.0 0.0 1.8120599833127288e-14 2.127069953633531e-14 -7.986800075714822e-14 50.401799791316236 35.50939875899301 21.13939962269632 -28.418900834427316 -34.87780092115817 75.16550098574913 -0.11273799520253298 -8.224660227756418 -1.172249999323656 -6.834020074973816e-10 -4.35499008231186e-08 1.0528700487539193e-09 -1.179880033379806e-09 -7.522560149288302e-08 1.813569971205913e-09 -6.833989760312008e-10 -4.35499008231186e-08 1.0528700487539193e-09 7.730910121524428 5.474879855648998 0.41731399283890674 -6.834030014207196e-10 -4.35499008231186e-08 1.0528600101282058e-09 2.90554006136521 0.9651829962377875 0.10290200252939893 -6.83395994261187e-10 -4.35499008231186e-08 1.0528700487539193e-09 10.278599710243157 0.7318009818271524 0.025912300303053633 -6.834069771140714e-10 -4.35499008231186e-08 1.052879987987299e-09 2.221669932038622 -0.7334870246959406 -0.20891999872313852 1.8031500708704592e-14 2.1269199612352703e-14 -8.015679906297584e-14 -5.888910128322715 -1.598249965074409 -97.42820205708222 26.796899953731245 -25.664000381763323 -59.72650040471729 1.2607699980189617 -30.376600390187633 4.7123101522714075 6.238449780751386e-10 4.111149945462079e-10 3.724050101759513e-10 1.0557000466740852e-09 7.046279858219643e-10 6.702770013388203e-10 6.238470156179814e-10 4.111109940047726e-10 3.724159930288357e-10 -7.730910121524428 5.474879855648998 -0.41731399283890674 6.238449780751386e-10 4.1111300669953194e-10 3.724100046407245e-10 -2.90554006136521 0.9651829962377875 -0.10290200252939893 6.238390145351109e-10 4.1111198792811053e-10 3.7240600409928923e-10 -10.278599710243157 0.7318009818271524 -0.025912300303053633 6.238560106241899e-10 4.111140006228699e-10 3.72401009634516e-10 -2.221669932038622 -0.7334870246959406 0.20891999872313852 -2.0321699793705798e-16 0.0 -3.882510030490358e-19 -66.22840336246254 -65.06460059959491 -52.46319869415028 -172.75100229941674 80.79279822027426 173.87299747437473 -10.209700176990653 -27.154600375659395 -15.703899222707031 2.0321699793705798e-16 0.0 3.882510030490358e-19 74.64519766534507 -48.87350056829628 66.52579662911407 174.20999900802317 78.2762969828531 -175.5569942746197 7.485860009577295 -21.252099451548826 13.03069978534744
-1.5714100014520227 51.82350277900696 -4.00699998899654 -1.2613999762481896 -3.752800055026139 365.538009359229 -4.016240024426708 20.509299303837015 4.275980165731245 2.648569988655936 -13.749700138896344 1.3423300339500244 2.2481599669608703 13.350899907411286 10.456399779622343 -3.52079005486503 -28.954298872897102 19.88609918358671 -0.0 0.0 0.0 -0.0 0.0 0.0 3.628109855415585e-15 1.1290999451328601e-13 -6.525109746903308e-14 43.507898616725605 35.344999520765384 30.399498599380102 -28.381899992146064 -33.95010072242494 73.61810113871523 -0.05149779873268463 -6.4625098417072095 -0.912157036059805 -1.2395800386742143e-09 -1.312210032429043e-08 2.3204199846892576e-09 -2.152230066502123e-09 -2.2734900654686594e-08 4.003149887686465e-09 -1.2395800386742143e-09 -1.312210032429043e-08 2.3204199846892576e-09 7.730910121524428 5.474879855648998 0.41731399283890674 -1.2395899779075939e-09 -1.312210032429043e-08 2.3204100454558778e-09 2.90554006136521 0.9651829962377875 0.10290200252939893 -1.2395700000485008e-09 -1.312210032429043e-08 2.3204100454558778e-09 10.278599710243157 0.7318009818271524 0.025912300303053633 -1.2395800386742143e-09 -1.312210032429043e-08 2.3204100454558778e-09 2.221669932038622 -0.7334870246959406 -0.20891999872313852 3.627770135524682e-15 1.1290999451328601e-13 -6.549949943997631e-14 -1.5081299945660278 -3.8288700062466865 -99.89799846095883 27.98080054823165 -30.499400361275292 -68.04619673835892 1.8673000811044969 -35.69489986666138 5.7950300319545365 1.5888400281927384e-09 -4.902379763820606e-10 1.568350000403746e-09 2.6895299153671293e-09 -8.226920143560652e-10 2.7581499850503694e-09 1.5888400281927384e-09 -4.902359885353847e-10 1.5683600390294596e-09 -7.730910121524428 5.474879855648998 -0.41731399283890674 1.5888400281927384e-09 -4.902359885353847e-10 1.568350000403746e-09 -2.90554006136521 0.9651829962377875 -0.10290200252939893 1.5888400281927384e-09 -4.902379763820606e-10 1.568350000403746e-09 -10.278599710243157 0.7318009818271524 -0.025912300303053633 1.588849967426118e-09 -4.902369824587227e-10 1.5683399617780328e-09 -2.221669932038622 -0.7334870246959406 0.20891999872313852 -2.0321699793705798e-16 0.0 -3.882510030490358e-19 -65.3607029604933 -65.04779833423667 -51.90870003166655 -172.51799722607092 81.08920110949613 173.60100568124648 -9.6713899166135 -27.155899819148992 -14.87919998420489 2.0321699793705798e-16 0.0 3.882510030490358e-19 74.41739719614681 -49.679599494141186 66.20029713402795 173.8059933186169 79.1587027821054 -175.1130046578122 7.104670140206645 -20.852099668090784 12.564200426356509
